STARTFONT 2.1
COMMENT "Generated by fontforge, http://fontforge.sourceforge.net"
COMMENT "forked from Proggy Tiny, http://www.proggyfonts.com"
FONT -ctrld-fixed-bold-r-normal--10-80-96-96-c-80-ISO10646-1
SIZE 10 96 96
FONTBOUNDINGBOX 6 10 0 -2
STARTPROPERTIES 18
FACE_NAME "CtrlD"
FAMILY_NAME "CtrlD"
WEIGHT_NAME "Bold"
SLANT "R"
PIXEL_SIZE 10
CHARSET_REGISTRY "ISO10646"
CHARSET_ENCODING "1"
CAP_HEIGHT 8
POINT_SIZE 80
WEIGHT 10
RESOLUTION_X 96
RESOLUTION_Y 96
X_HEIGHT 0
QUAD_WIDTH 6
DEFAULT_CHAR 8223
FONT_DESCENT 2
FONT_ASCENT 8
_GBDFED_INFO "Edited with gbdfed 1.6."
ENDPROPERTIES
CHARS 273
STARTCHAR uni0000
ENCODING 0
SWIDTH 450 0
DWIDTH 6 0
BBX 6 10 0 -2
BITMAP
74
84
84
80
04
84
84
80
04
EC
ENDCHAR
STARTCHAR uni0001
ENCODING 1
SWIDTH 450 0
DWIDTH 6 0
BBX 6 10 0 -2
BITMAP
00
00
30
78
FC
78
30
00
00
00
ENDCHAR
STARTCHAR uni0002
ENCODING 2
SWIDTH 450 0
DWIDTH 6 0
BBX 6 10 0 -2
BITMAP
30
CC
30
CC
30
CC
30
CC
30
CC
ENDCHAR
STARTCHAR uni0003
ENCODING 3
SWIDTH 450 0
DWIDTH 6 0
BBX 6 10 0 -2
BITMAP
D0
D0
F0
DC
D8
1C
18
18
00
00
ENDCHAR
STARTCHAR uni0004
ENCODING 4
SWIDTH 450 0
DWIDTH 6 0
BBX 6 10 0 -2
BITMAP
F0
C0
E0
DC
D8
1C
18
18
00
00
ENDCHAR
STARTCHAR uni0005
ENCODING 5
SWIDTH 450 0
DWIDTH 6 0
BBX 6 10 0 -2
BITMAP
60
C0
C0
DC
74
18
14
14
00
00
ENDCHAR
STARTCHAR uni0006
ENCODING 6
SWIDTH 450 0
DWIDTH 6 0
BBX 6 10 0 -2
BITMAP
C0
C0
C0
DC
F8
1C
18
18
00
00
ENDCHAR
STARTCHAR uni0007
ENCODING 7
SWIDTH 450 0
DWIDTH 6 0
BBX 6 10 0 -2
BITMAP
00
30
58
78
30
00
00
00
00
00
ENDCHAR
STARTCHAR uni0008
ENCODING 8
SWIDTH 450 0
DWIDTH 6 0
BBX 6 10 0 -2
BITMAP
00
00
20
20
F8
20
20
00
F8
00
ENDCHAR
STARTCHAR uni0009
ENCODING 9
SWIDTH 450 0
DWIDTH 6 0
BBX 6 10 0 -2
BITMAP
C0
F0
D0
D8
D8
18
18
1C
00
00
ENDCHAR
STARTCHAR uni000A
ENCODING 10
SWIDTH 450 0
DWIDTH 6 0
BBX 6 10 0 -2
BITMAP
A0
A0
E0
5C
5C
08
08
08
00
00
ENDCHAR
STARTCHAR uni000B
ENCODING 11
SWIDTH 450 0
DWIDTH 6 0
BBX 6 10 0 -2
BITMAP
30
30
30
30
F0
F0
00
00
00
00
ENDCHAR
STARTCHAR uni000C
ENCODING 12
SWIDTH 450 0
DWIDTH 6 0
BBX 6 10 0 -2
BITMAP
00
00
00
00
F0
F0
30
30
30
30
ENDCHAR
STARTCHAR uni000D
ENCODING 13
SWIDTH 450 0
DWIDTH 6 0
BBX 6 10 0 -2
BITMAP
00
00
00
00
3C
3C
30
30
30
30
ENDCHAR
STARTCHAR uni000E
ENCODING 14
SWIDTH 450 0
DWIDTH 6 0
BBX 6 10 0 -2
BITMAP
30
30
30
30
3C
3C
00
00
00
00
ENDCHAR
STARTCHAR uni000F
ENCODING 15
SWIDTH 450 0
DWIDTH 6 0
BBX 6 10 0 -2
BITMAP
30
30
30
30
FC
FC
30
30
30
30
ENDCHAR
STARTCHAR uni0010
ENCODING 16
SWIDTH 450 0
DWIDTH 6 0
BBX 6 10 0 -2
BITMAP
FC
FC
00
00
00
00
00
00
00
00
ENDCHAR
STARTCHAR uni0011
ENCODING 17
SWIDTH 450 0
DWIDTH 6 0
BBX 6 10 0 -2
BITMAP
00
00
FC
FC
00
00
00
00
00
00
ENDCHAR
STARTCHAR uni0012
ENCODING 18
SWIDTH 450 0
DWIDTH 6 0
BBX 6 10 0 -2
BITMAP
00
00
00
00
FC
FC
00
00
00
00
ENDCHAR
STARTCHAR uni0013
ENCODING 19
SWIDTH 450 0
DWIDTH 6 0
BBX 6 10 0 -2
BITMAP
00
00
00
00
00
00
FC
FC
00
00
ENDCHAR
STARTCHAR uni0014
ENCODING 20
SWIDTH 450 0
DWIDTH 6 0
BBX 6 10 0 -2
BITMAP
00
00
00
00
00
00
00
00
FC
FC
ENDCHAR
STARTCHAR uni0015
ENCODING 21
SWIDTH 450 0
DWIDTH 6 0
BBX 6 10 0 -2
BITMAP
30
30
30
30
3C
3C
30
30
30
30
ENDCHAR
STARTCHAR uni0016
ENCODING 22
SWIDTH 450 0
DWIDTH 6 0
BBX 6 10 0 -2
BITMAP
30
30
30
30
F0
F0
30
30
30
30
ENDCHAR
STARTCHAR uni0017
ENCODING 23
SWIDTH 450 0
DWIDTH 6 0
BBX 6 10 0 -2
BITMAP
30
30
30
30
FC
FC
00
00
00
00
ENDCHAR
STARTCHAR uni0018
ENCODING 24
SWIDTH 450 0
DWIDTH 6 0
BBX 6 10 0 -2
BITMAP
00
00
00
00
FC
FC
30
30
30
30
ENDCHAR
STARTCHAR uni0019
ENCODING 25
SWIDTH 450 0
DWIDTH 6 0
BBX 6 10 0 -2
BITMAP
30
30
30
30
30
30
30
30
30
30
ENDCHAR
STARTCHAR uni001A
ENCODING 26
SWIDTH 450 0
DWIDTH 6 0
BBX 6 10 0 -2
BITMAP
00
18
70
E0
70
18
00
F8
00
00
ENDCHAR
STARTCHAR uni001B
ENCODING 27
SWIDTH 450 0
DWIDTH 6 0
BBX 6 10 0 -2
BITMAP
00
C0
70
38
70
C0
00
F8
00
00
ENDCHAR
STARTCHAR uni001C
ENCODING 28
SWIDTH 450 0
DWIDTH 6 0
BBX 6 10 0 -2
BITMAP
00
00
00
F8
F8
50
50
50
00
00
ENDCHAR
STARTCHAR uni001D
ENCODING 29
SWIDTH 450 0
DWIDTH 6 0
BBX 6 10 0 -2
BITMAP
00
00
18
F8
30
F8
60
00
00
00
ENDCHAR
STARTCHAR uni001E
ENCODING 30
SWIDTH 450 0
DWIDTH 6 0
BBX 6 10 0 -2
BITMAP
18
30
30
78
30
60
F8
F8
00
00
ENDCHAR
STARTCHAR uni001F
ENCODING 31
SWIDTH 450 0
DWIDTH 6 0
BBX 6 10 0 -2
BITMAP
00
00
00
70
70
00
00
00
00
00
ENDCHAR
STARTCHAR space
ENCODING 32
SWIDTH 450 0
DWIDTH 6 0
BBX 6 10 0 -2
BITMAP
00
00
00
00
00
00
00
00
00
00
ENDCHAR
STARTCHAR exclam
ENCODING 33
SWIDTH 450 0
DWIDTH 6 0
BBX 6 10 0 -2
BITMAP
00
20
30
30
20
20
00
20
00
00
ENDCHAR
STARTCHAR quotedbl
ENCODING 34
SWIDTH 450 0
DWIDTH 6 0
BBX 6 10 0 -2
BITMAP
58
58
58
00
00
00
00
00
00
00
ENDCHAR
STARTCHAR numbersign
ENCODING 35
SWIDTH 450 0
DWIDTH 6 0
BBX 6 10 0 -2
BITMAP
00
00
50
F8
70
70
F8
50
00
00
ENDCHAR
STARTCHAR dollar
ENCODING 36
SWIDTH 450 0
DWIDTH 6 0
BBX 6 10 0 -2
BITMAP
00
20
78
E0
F8
38
F0
20
00
00
ENDCHAR
STARTCHAR percent
ENCODING 37
SWIDTH 450 0
DWIDTH 6 0
BBX 6 10 0 -2
BITMAP
00
44
AC
58
30
68
D4
88
00
00
ENDCHAR
STARTCHAR ampersand
ENCODING 38
SWIDTH 450 0
DWIDTH 6 0
BBX 6 10 0 -2
BITMAP
00
60
D0
D0
60
D4
D8
74
00
00
ENDCHAR
STARTCHAR quotesingle
ENCODING 39
SWIDTH 450 0
DWIDTH 6 0
BBX 6 10 0 -2
BITMAP
30
30
30
00
00
00
00
00
00
00
ENDCHAR
STARTCHAR parenleft
ENCODING 40
SWIDTH 450 0
DWIDTH 6 0
BBX 6 10 0 -2
BITMAP
10
30
60
60
60
60
60
30
10
00
ENDCHAR
STARTCHAR parenright
ENCODING 41
SWIDTH 450 0
DWIDTH 6 0
BBX 6 10 0 -2
BITMAP
40
60
30
30
30
30
30
60
40
00
ENDCHAR
STARTCHAR asterisk
ENCODING 42
SWIDTH 450 0
DWIDTH 6 0
BBX 6 10 0 -2
BITMAP
00
00
A8
70
70
70
A8
00
00
00
ENDCHAR
STARTCHAR plus
ENCODING 43
SWIDTH 450 0
DWIDTH 6 0
BBX 6 10 0 -2
BITMAP
00
00
20
20
F8
20
20
00
00
00
ENDCHAR
STARTCHAR comma
ENCODING 44
SWIDTH 450 0
DWIDTH 6 0
BBX 6 10 0 -2
BITMAP
00
00
00
00
00
00
20
20
40
00
ENDCHAR
STARTCHAR hyphen
ENCODING 45
SWIDTH 450 0
DWIDTH 6 0
BBX 6 10 0 -2
BITMAP
00
00
00
00
F8
00
00
00
00
00
ENDCHAR
STARTCHAR period
ENCODING 46
SWIDTH 450 0
DWIDTH 6 0
BBX 6 10 0 -2
BITMAP
00
00
00
00
00
00
30
30
00
00
ENDCHAR
STARTCHAR slash
ENCODING 47
SWIDTH 450 0
DWIDTH 6 0
BBX 6 10 0 -2
BITMAP
08
18
10
30
20
60
40
C0
80
00
ENDCHAR
STARTCHAR zero
ENCODING 48
SWIDTH 450 0
DWIDTH 6 0
BBX 6 10 0 -2
BITMAP
00
70
D8
D8
F8
D8
D8
70
00
00
ENDCHAR
STARTCHAR one
ENCODING 49
SWIDTH 450 0
DWIDTH 6 0
BBX 6 10 0 -2
BITMAP
00
10
30
70
30
30
30
78
00
00
ENDCHAR
STARTCHAR two
ENCODING 50
SWIDTH 450 0
DWIDTH 6 0
BBX 6 10 0 -2
BITMAP
00
70
98
18
18
30
60
F8
00
00
ENDCHAR
STARTCHAR three
ENCODING 51
SWIDTH 450 0
DWIDTH 6 0
BBX 6 10 0 -2
BITMAP
00
F0
38
38
F0
38
38
F0
00
00
ENDCHAR
STARTCHAR four
ENCODING 52
SWIDTH 450 0
DWIDTH 6 0
BBX 6 10 0 -2
BITMAP
00
10
30
70
B0
F8
30
30
00
00
ENDCHAR
STARTCHAR five
ENCODING 53
SWIDTH 450 0
DWIDTH 6 0
BBX 6 10 0 -2
BITMAP
00
F0
C8
C0
F0
38
B8
70
00
00
ENDCHAR
STARTCHAR six
ENCODING 54
SWIDTH 450 0
DWIDTH 6 0
BBX 6 10 0 -2
BITMAP
00
30
60
C0
F0
D8
D8
70
00
00
ENDCHAR
STARTCHAR seven
ENCODING 55
SWIDTH 450 0
DWIDTH 6 0
BBX 6 10 0 -2
BITMAP
00
F8
F8
10
30
20
60
40
00
00
ENDCHAR
STARTCHAR eight
ENCODING 56
SWIDTH 450 0
DWIDTH 6 0
BBX 6 10 0 -2
BITMAP
00
70
D8
D8
70
D8
D8
70
00
00
ENDCHAR
STARTCHAR nine
ENCODING 57
SWIDTH 450 0
DWIDTH 6 0
BBX 6 10 0 -2
BITMAP
00
70
D8
D8
78
18
30
60
00
00
ENDCHAR
STARTCHAR colon
ENCODING 58
SWIDTH 450 0
DWIDTH 6 0
BBX 6 10 0 -2
BITMAP
00
00
30
30
00
30
30
00
00
00
ENDCHAR
STARTCHAR semicolon
ENCODING 59
SWIDTH 450 0
DWIDTH 6 0
BBX 6 10 0 -2
BITMAP
00
00
00
20
00
20
20
40
00
00
ENDCHAR
STARTCHAR less
ENCODING 60
SWIDTH 450 0
DWIDTH 6 0
BBX 6 10 0 -2
BITMAP
00
00
18
70
E0
70
18
00
00
00
ENDCHAR
STARTCHAR equal
ENCODING 61
SWIDTH 450 0
DWIDTH 6 0
BBX 6 10 0 -2
BITMAP
00
00
00
F8
00
F8
38
00
00
00
ENDCHAR
STARTCHAR greater
ENCODING 62
SWIDTH 450 0
DWIDTH 6 0
BBX 6 10 0 -2
BITMAP
00
00
C0
70
38
70
C0
00
00
00
ENDCHAR
STARTCHAR question
ENCODING 63
SWIDTH 450 0
DWIDTH 6 0
BBX 6 10 0 -2
BITMAP
00
70
98
98
30
20
00
20
00
00
ENDCHAR
STARTCHAR at
ENCODING 64
SWIDTH 450 0
DWIDTH 6 0
BBX 6 10 0 -2
BITMAP
78
FC
84
B4
BC
BC
80
7C
00
00
ENDCHAR
STARTCHAR A
ENCODING 65
SWIDTH 450 0
DWIDTH 6 0
BBX 6 10 0 -2
BITMAP
00
20
70
50
F8
D8
D8
D8
00
00
ENDCHAR
STARTCHAR B
ENCODING 66
SWIDTH 450 0
DWIDTH 6 0
BBX 6 10 0 -2
BITMAP
00
F0
D8
D8
F0
D8
D8
F0
00
00
ENDCHAR
STARTCHAR C
ENCODING 67
SWIDTH 450 0
DWIDTH 6 0
BBX 6 10 0 -2
BITMAP
00
70
C8
C0
C0
C0
C8
70
00
00
ENDCHAR
STARTCHAR D
ENCODING 68
SWIDTH 450 0
DWIDTH 6 0
BBX 6 10 0 -2
BITMAP
00
E0
D0
D8
D8
D8
D0
E0
00
00
ENDCHAR
STARTCHAR E
ENCODING 69
SWIDTH 450 0
DWIDTH 6 0
BBX 6 10 0 -2
BITMAP
00
F8
C0
C0
F0
C0
C0
F8
00
00
ENDCHAR
STARTCHAR F
ENCODING 70
SWIDTH 450 0
DWIDTH 6 0
BBX 6 10 0 -2
BITMAP
00
F8
C0
C0
F0
C0
C0
C0
00
00
ENDCHAR
STARTCHAR G
ENCODING 71
SWIDTH 450 0
DWIDTH 6 0
BBX 6 10 0 -2
BITMAP
00
70
D8
C0
D8
C8
C8
78
00
00
ENDCHAR
STARTCHAR H
ENCODING 72
SWIDTH 450 0
DWIDTH 6 0
BBX 6 10 0 -2
BITMAP
00
D8
D8
D8
F8
D8
D8
D8
00
00
ENDCHAR
STARTCHAR I
ENCODING 73
SWIDTH 450 0
DWIDTH 6 0
BBX 6 10 0 -2
BITMAP
00
78
30
30
30
30
30
78
00
00
ENDCHAR
STARTCHAR J
ENCODING 74
SWIDTH 450 0
DWIDTH 6 0
BBX 6 10 0 -2
BITMAP
00
78
18
18
18
18
18
F0
00
00
ENDCHAR
STARTCHAR K
ENCODING 75
SWIDTH 450 0
DWIDTH 6 0
BBX 6 10 0 -2
BITMAP
00
C8
D0
E0
E0
F0
D8
C8
00
00
ENDCHAR
STARTCHAR L
ENCODING 76
SWIDTH 450 0
DWIDTH 6 0
BBX 6 10 0 -2
BITMAP
00
C0
C0
C0
C0
C0
C0
F8
00
00
ENDCHAR
STARTCHAR M
ENCODING 77
SWIDTH 450 0
DWIDTH 6 0
BBX 6 10 0 -2
BITMAP
00
88
88
D8
F8
F8
D8
D8
00
00
ENDCHAR
STARTCHAR N
ENCODING 78
SWIDTH 450 0
DWIDTH 6 0
BBX 6 10 0 -2
BITMAP
00
C8
C8
E8
E8
D8
D8
D8
00
00
ENDCHAR
STARTCHAR O
ENCODING 79
SWIDTH 450 0
DWIDTH 6 0
BBX 6 10 0 -2
BITMAP
00
70
D8
D8
D8
D8
D8
70
00
00
ENDCHAR
STARTCHAR P
ENCODING 80
SWIDTH 450 0
DWIDTH 6 0
BBX 6 10 0 -2
BITMAP
00
F0
D8
D8
F0
C0
C0
C0
00
00
ENDCHAR
STARTCHAR Q
ENCODING 81
SWIDTH 450 0
DWIDTH 6 0
BBX 6 10 0 -2
BITMAP
00
70
D8
D8
D8
F8
D8
74
00
00
ENDCHAR
STARTCHAR R
ENCODING 82
SWIDTH 450 0
DWIDTH 6 0
BBX 6 10 0 -2
BITMAP
00
F0
D8
D8
F0
D8
D8
D8
00
00
ENDCHAR
STARTCHAR S
ENCODING 83
SWIDTH 450 0
DWIDTH 6 0
BBX 6 10 0 -2
BITMAP
00
70
C8
C0
70
18
98
70
00
00
ENDCHAR
STARTCHAR T
ENCODING 84
SWIDTH 450 0
DWIDTH 6 0
BBX 6 10 0 -2
BITMAP
00
FC
30
30
30
30
30
30
00
00
ENDCHAR
STARTCHAR U
ENCODING 85
SWIDTH 450 0
DWIDTH 6 0
BBX 6 10 0 -2
BITMAP
00
D8
D8
D8
D8
D8
D8
70
00
00
ENDCHAR
STARTCHAR V
ENCODING 86
SWIDTH 450 0
DWIDTH 6 0
BBX 6 10 0 -2
BITMAP
00
D8
D8
D8
D8
50
70
20
00
00
ENDCHAR
STARTCHAR W
ENCODING 87
SWIDTH 450 0
DWIDTH 6 0
BBX 6 10 0 -2
BITMAP
00
88
A8
A8
F8
F8
70
50
00
00
ENDCHAR
STARTCHAR X
ENCODING 88
SWIDTH 450 0
DWIDTH 6 0
BBX 6 10 0 -2
BITMAP
00
D8
D8
50
20
50
D8
D8
00
00
ENDCHAR
STARTCHAR Y
ENCODING 89
SWIDTH 450 0
DWIDTH 6 0
BBX 6 10 0 -2
BITMAP
00
D8
D8
D8
70
20
20
20
00
00
ENDCHAR
STARTCHAR Z
ENCODING 90
SWIDTH 450 0
DWIDTH 6 0
BBX 6 10 0 -2
BITMAP
00
F8
38
30
20
60
E0
F8
00
00
ENDCHAR
STARTCHAR bracketleft
ENCODING 91
SWIDTH 450 0
DWIDTH 6 0
BBX 6 10 0 -2
BITMAP
70
60
60
60
60
60
60
60
70
00
ENDCHAR
STARTCHAR backslash
ENCODING 92
SWIDTH 450 0
DWIDTH 6 0
BBX 6 10 0 -2
BITMAP
80
C0
40
60
20
30
10
18
08
00
ENDCHAR
STARTCHAR bracketright
ENCODING 93
SWIDTH 450 0
DWIDTH 6 0
BBX 6 10 0 -2
BITMAP
70
30
30
30
30
30
30
30
70
00
ENDCHAR
STARTCHAR asciicircum
ENCODING 94
SWIDTH 450 0
DWIDTH 6 0
BBX 6 10 0 -2
BITMAP
00
20
70
D8
88
00
00
00
00
00
ENDCHAR
STARTCHAR underscore
ENCODING 95
SWIDTH 450 0
DWIDTH 6 0
BBX 6 10 0 -2
BITMAP
00
00
00
00
00
00
00
00
FC
FC
ENDCHAR
STARTCHAR grave
ENCODING 96
SWIDTH 450 0
DWIDTH 6 0
BBX 6 10 0 -2
BITMAP
00
20
30
10
00
00
00
00
00
00
ENDCHAR
STARTCHAR a
ENCODING 97
SWIDTH 450 0
DWIDTH 6 0
BBX 6 10 0 -2
BITMAP
00
00
00
70
18
78
D8
78
00
00
ENDCHAR
STARTCHAR b
ENCODING 98
SWIDTH 450 0
DWIDTH 6 0
BBX 6 10 0 -2
BITMAP
C0
C0
C0
F0
D8
D8
D8
F0
00
00
ENDCHAR
STARTCHAR c
ENCODING 99
SWIDTH 450 0
DWIDTH 6 0
BBX 6 10 0 -2
BITMAP
00
00
00
78
C0
C0
C0
78
00
00
ENDCHAR
STARTCHAR d
ENCODING 100
SWIDTH 450 0
DWIDTH 6 0
BBX 6 10 0 -2
BITMAP
18
18
18
78
D8
D8
D8
78
00
00
ENDCHAR
STARTCHAR e
ENCODING 101
SWIDTH 450 0
DWIDTH 6 0
BBX 6 10 0 -2
BITMAP
00
00
00
70
D8
F8
C0
78
00
00
ENDCHAR
STARTCHAR f
ENCODING 102
SWIDTH 450 0
DWIDTH 6 0
BBX 6 10 0 -2
BITMAP
38
60
60
F8
60
60
60
60
00
00
ENDCHAR
STARTCHAR g
ENCODING 103
SWIDTH 450 0
DWIDTH 6 0
BBX 6 10 0 -2
BITMAP
00
00
00
70
D8
D8
D8
78
18
70
ENDCHAR
STARTCHAR h
ENCODING 104
SWIDTH 450 0
DWIDTH 6 0
BBX 6 10 0 -2
BITMAP
C0
C0
C0
F0
D8
D8
D8
D8
00
00
ENDCHAR
STARTCHAR i
ENCODING 105
SWIDTH 450 0
DWIDTH 6 0
BBX 6 10 0 -2
BITMAP
30
30
00
70
30
30
30
30
00
00
ENDCHAR
STARTCHAR j
ENCODING 106
SWIDTH 450 0
DWIDTH 6 0
BBX 6 10 0 -2
BITMAP
30
30
00
70
30
30
30
30
30
E0
ENDCHAR
STARTCHAR k
ENCODING 107
SWIDTH 450 0
DWIDTH 6 0
BBX 6 10 0 -2
BITMAP
60
60
60
68
70
70
78
68
00
00
ENDCHAR
STARTCHAR l
ENCODING 108
SWIDTH 450 0
DWIDTH 6 0
BBX 6 10 0 -2
BITMAP
70
30
30
30
30
30
30
30
00
00
ENDCHAR
STARTCHAR m
ENCODING 109
SWIDTH 450 0
DWIDTH 6 0
BBX 6 10 0 -2
BITMAP
00
00
00
D0
F8
F8
A8
A8
00
00
ENDCHAR
STARTCHAR n
ENCODING 110
SWIDTH 450 0
DWIDTH 6 0
BBX 6 10 0 -2
BITMAP
00
00
00
F0
D8
D8
D8
D8
00
00
ENDCHAR
STARTCHAR o
ENCODING 111
SWIDTH 450 0
DWIDTH 6 0
BBX 6 10 0 -2
BITMAP
00
00
00
70
D8
D8
D8
70
00
00
ENDCHAR
STARTCHAR p
ENCODING 112
SWIDTH 450 0
DWIDTH 6 0
BBX 6 10 0 -2
BITMAP
00
00
00
F0
D8
D8
D8
F0
C0
C0
ENDCHAR
STARTCHAR q
ENCODING 113
SWIDTH 450 0
DWIDTH 6 0
BBX 6 10 0 -2
BITMAP
00
00
00
78
D8
D8
D8
78
18
18
ENDCHAR
STARTCHAR r
ENCODING 114
SWIDTH 450 0
DWIDTH 6 0
BBX 6 10 0 -2
BITMAP
00
00
00
D0
E8
C0
C0
C0
00
00
ENDCHAR
STARTCHAR s
ENCODING 115
SWIDTH 450 0
DWIDTH 6 0
BBX 6 10 0 -2
BITMAP
00
00
00
78
C0
70
18
F0
00
00
ENDCHAR
STARTCHAR t
ENCODING 116
SWIDTH 450 0
DWIDTH 6 0
BBX 6 10 0 -2
BITMAP
00
60
60
78
60
60
60
38
00
00
ENDCHAR
STARTCHAR u
ENCODING 117
SWIDTH 450 0
DWIDTH 6 0
BBX 6 10 0 -2
BITMAP
00
00
00
D8
D8
D8
D8
78
00
00
ENDCHAR
STARTCHAR v
ENCODING 118
SWIDTH 450 0
DWIDTH 6 0
BBX 6 10 0 -2
BITMAP
00
00
00
D8
D8
50
70
20
00
00
ENDCHAR
STARTCHAR w
ENCODING 119
SWIDTH 450 0
DWIDTH 6 0
BBX 6 10 0 -2
BITMAP
00
00
00
88
A8
F8
F8
50
00
00
ENDCHAR
STARTCHAR x
ENCODING 120
SWIDTH 450 0
DWIDTH 6 0
BBX 6 10 0 -2
BITMAP
00
00
00
D8
50
20
50
D8
00
00
ENDCHAR
STARTCHAR y
ENCODING 121
SWIDTH 450 0
DWIDTH 6 0
BBX 6 10 0 -2
BITMAP
00
00
00
D8
D8
D8
D8
78
18
70
ENDCHAR
STARTCHAR z
ENCODING 122
SWIDTH 450 0
DWIDTH 6 0
BBX 6 10 0 -2
BITMAP
00
00
00
F8
18
30
60
F8
00
00
ENDCHAR
STARTCHAR braceleft
ENCODING 123
SWIDTH 450 0
DWIDTH 6 0
BBX 6 10 0 -2
BITMAP
30
20
20
60
C0
60
20
20
30
00
ENDCHAR
STARTCHAR bar
ENCODING 124
SWIDTH 450 0
DWIDTH 6 0
BBX 6 10 0 -2
BITMAP
30
30
30
30
30
30
30
30
30
00
ENDCHAR
STARTCHAR braceright
ENCODING 125
SWIDTH 450 0
DWIDTH 6 0
BBX 6 10 0 -2
BITMAP
60
20
20
30
18
30
20
20
60
00
ENDCHAR
STARTCHAR asciitilde
ENCODING 126
SWIDTH 450 0
DWIDTH 6 0
BBX 6 10 0 -2
BITMAP
00
00
00
00
6C
D8
00
00
00
00
ENDCHAR
STARTCHAR uni007F
ENCODING 127
SWIDTH 450 0
DWIDTH 6 0
BBX 6 10 0 -2
BITMAP
00
F8
D8
D8
D8
D8
D8
F8
00
00
ENDCHAR
STARTCHAR uni0080
ENCODING 128
SWIDTH 450 0
DWIDTH 6 0
BBX 6 10 0 -2
BITMAP
00
38
64
F0
60
F0
64
38
00
00
ENDCHAR
STARTCHAR uni0081
ENCODING 129
SWIDTH 450 0
DWIDTH 6 0
BBX 6 10 0 -2
BITMAP
00
00
00
00
00
00
00
00
00
00
ENDCHAR
STARTCHAR uni0082
ENCODING 130
SWIDTH 450 0
DWIDTH 6 0
BBX 6 10 0 -2
BITMAP
00
00
00
00
00
00
10
30
20
00
ENDCHAR
STARTCHAR uni0083
ENCODING 131
SWIDTH 450 0
DWIDTH 6 0
BBX 6 10 0 -2
BITMAP
18
30
30
78
30
30
30
30
30
60
ENDCHAR
STARTCHAR uni0084
ENCODING 132
SWIDTH 450 0
DWIDTH 6 0
BBX 6 10 0 -2
BITMAP
00
00
00
00
00
00
00
58
58
00
ENDCHAR
STARTCHAR uni0085
ENCODING 133
SWIDTH 450 0
DWIDTH 6 0
BBX 6 10 0 -2
BITMAP
00
00
00
00
00
00
00
A8
A8
00
ENDCHAR
STARTCHAR uni0086
ENCODING 134
SWIDTH 450 0
DWIDTH 6 0
BBX 6 10 0 -2
BITMAP
20
20
F8
F8
20
20
20
20
20
00
ENDCHAR
STARTCHAR uni0087
ENCODING 135
SWIDTH 450 0
DWIDTH 6 0
BBX 6 10 0 -2
BITMAP
20
20
F8
20
F8
20
20
20
20
00
ENDCHAR
STARTCHAR uni0088
ENCODING 136
SWIDTH 450 0
DWIDTH 6 0
BBX 6 10 0 -2
BITMAP
20
70
50
00
00
00
00
00
00
00
ENDCHAR
STARTCHAR uni0089
ENCODING 137
SWIDTH 450 0
DWIDTH 6 0
BBX 6 10 0 -2
BITMAP
00
00
C8
D0
20
54
94
00
00
00
ENDCHAR
STARTCHAR uni008A
ENCODING 138
SWIDTH 450 0
DWIDTH 6 0
BBX 6 10 0 -2
BITMAP
50
20
00
78
C0
F8
18
F0
00
00
ENDCHAR
STARTCHAR uni008B
ENCODING 139
SWIDTH 450 0
DWIDTH 6 0
BBX 6 10 0 -2
BITMAP
00
00
00
30
60
C0
60
30
00
00
ENDCHAR
STARTCHAR uni008C
ENCODING 140
SWIDTH 450 0
DWIDTH 6 0
BBX 6 10 0 -2
BITMAP
00
6C
B0
B0
B8
B0
B0
6C
00
00
ENDCHAR
STARTCHAR uni008D
ENCODING 141
SWIDTH 450 0
DWIDTH 6 0
BBX 6 10 0 -2
BITMAP
00
00
00
00
00
00
00
00
00
00
ENDCHAR
STARTCHAR uni008E
ENCODING 142
SWIDTH 450 0
DWIDTH 6 0
BBX 6 10 0 -2
BITMAP
50
20
00
F8
18
30
60
F8
00
00
ENDCHAR
STARTCHAR uni008F
ENCODING 143
SWIDTH 450 0
DWIDTH 6 0
BBX 6 10 0 -2
BITMAP
00
00
00
00
00
00
00
00
00
00
ENDCHAR
STARTCHAR uni0090
ENCODING 144
SWIDTH 450 0
DWIDTH 6 0
BBX 6 10 0 -2
BITMAP
00
00
00
00
00
00
00
00
00
00
ENDCHAR
STARTCHAR uni0091
ENCODING 145
SWIDTH 450 0
DWIDTH 6 0
BBX 6 10 0 -2
BITMAP
60
60
30
00
00
00
00
00
00
00
ENDCHAR
STARTCHAR uni0092
ENCODING 146
SWIDTH 450 0
DWIDTH 6 0
BBX 6 10 0 -2
BITMAP
18
18
30
00
00
00
00
00
00
00
ENDCHAR
STARTCHAR uni0093
ENCODING 147
SWIDTH 450 0
DWIDTH 6 0
BBX 6 10 0 -2
BITMAP
D0
D0
68
00
00
00
00
00
00
00
ENDCHAR
STARTCHAR uni0094
ENCODING 148
SWIDTH 450 0
DWIDTH 6 0
BBX 6 10 0 -2
BITMAP
2C
2C
58
00
00
00
00
00
00
00
ENDCHAR
STARTCHAR uni0095
ENCODING 149
SWIDTH 450 0
DWIDTH 6 0
BBX 6 10 0 -2
BITMAP
00
00
00
00
38
38
38
00
00
00
ENDCHAR
STARTCHAR uni0096
ENCODING 150
SWIDTH 450 0
DWIDTH 6 0
BBX 6 10 0 -2
BITMAP
00
00
00
00
00
F8
F8
00
00
00
ENDCHAR
STARTCHAR uni0097
ENCODING 151
SWIDTH 450 0
DWIDTH 6 0
BBX 6 10 0 -2
BITMAP
00
00
00
00
00
FC
FC
00
00
00
ENDCHAR
STARTCHAR uni0098
ENCODING 152
SWIDTH 450 0
DWIDTH 6 0
BBX 6 10 0 -2
BITMAP
00
00
00
00
6C
D8
00
00
00
00
ENDCHAR
STARTCHAR uni0099
ENCODING 153
SWIDTH 450 0
DWIDTH 6 0
BBX 6 10 0 -2
BITMAP
00
00
00
FC
FC
54
54
00
00
00
ENDCHAR
STARTCHAR uni009A
ENCODING 154
SWIDTH 450 0
DWIDTH 6 0
BBX 6 10 0 -2
BITMAP
50
20
00
78
C0
70
18
F0
00
00
ENDCHAR
STARTCHAR uni009B
ENCODING 155
SWIDTH 450 0
DWIDTH 6 0
BBX 6 10 0 -2
BITMAP
00
00
00
60
30
18
30
60
00
00
ENDCHAR
STARTCHAR uni009C
ENCODING 156
SWIDTH 450 0
DWIDTH 6 0
BBX 6 10 0 -2
BITMAP
00
00
00
6C
B0
B8
B0
6C
00
00
ENDCHAR
STARTCHAR uni009D
ENCODING 157
SWIDTH 450 0
DWIDTH 6 0
BBX 6 10 0 -2
BITMAP
00
00
00
00
00
00
00
00
00
00
ENDCHAR
STARTCHAR uni009E
ENCODING 158
SWIDTH 450 0
DWIDTH 6 0
BBX 6 10 0 -2
BITMAP
50
20
00
F8
18
30
60
F8
00
00
ENDCHAR
STARTCHAR uni009F
ENCODING 159
SWIDTH 450 0
DWIDTH 6 0
BBX 6 10 0 -2
BITMAP
50
00
D8
D8
D8
70
20
20
00
00
ENDCHAR
STARTCHAR uni00A0
ENCODING 160
SWIDTH 450 0
DWIDTH 6 0
BBX 6 10 0 -2
BITMAP
00
00
00
00
00
00
00
00
00
00
ENDCHAR
STARTCHAR exclamdown
ENCODING 161
SWIDTH 450 0
DWIDTH 6 0
BBX 6 10 0 -2
BITMAP
00
30
00
30
30
30
30
30
00
00
ENDCHAR
STARTCHAR cent
ENCODING 162
SWIDTH 450 0
DWIDTH 6 0
BBX 6 10 0 -2
BITMAP
00
00
10
78
50
50
78
10
00
00
ENDCHAR
STARTCHAR sterling
ENCODING 163
SWIDTH 450 0
DWIDTH 6 0
BBX 6 10 0 -2
BITMAP
18
30
30
78
30
60
C0
F8
00
00
ENDCHAR
STARTCHAR currency
ENCODING 164
SWIDTH 450 0
DWIDTH 6 0
BBX 6 10 0 -2
BITMAP
00
00
84
78
58
78
7C
8C
00
00
ENDCHAR
STARTCHAR yen
ENCODING 165
SWIDTH 450 0
DWIDTH 6 0
BBX 6 10 0 -2
BITMAP
00
D8
D8
70
20
F8
20
20
00
00
ENDCHAR
STARTCHAR brokenbar
ENCODING 166
SWIDTH 450 0
DWIDTH 6 0
BBX 6 10 0 -2
BITMAP
30
30
30
30
00
30
30
30
30
00
ENDCHAR
STARTCHAR section
ENCODING 167
SWIDTH 450 0
DWIDTH 6 0
BBX 6 10 0 -2
BITMAP
18
20
60
F0
D8
D8
78
30
20
C0
ENDCHAR
STARTCHAR dieresis
ENCODING 168
SWIDTH 450 0
DWIDTH 6 0
BBX 6 10 0 -2
BITMAP
00
58
00
00
00
00
00
00
00
00
ENDCHAR
STARTCHAR copyright
ENCODING 169
SWIDTH 450 0
DWIDTH 6 0
BBX 6 10 0 -2
BITMAP
00
FC
84
B4
A4
B4
84
FC
00
00
ENDCHAR
STARTCHAR ordfeminine
ENCODING 170
SWIDTH 450 0
DWIDTH 6 0
BBX 6 10 0 -2
BITMAP
30
18
38
00
38
00
00
00
00
00
ENDCHAR
STARTCHAR guillemotleft
ENCODING 171
SWIDTH 450 0
DWIDTH 6 0
BBX 6 10 0 -2
BITMAP
00
00
00
34
68
D0
68
34
00
00
ENDCHAR
STARTCHAR logicalnot
ENCODING 172
SWIDTH 450 0
DWIDTH 6 0
BBX 6 10 0 -2
BITMAP
00
00
00
00
78
18
18
18
00
00
ENDCHAR
STARTCHAR uni00AD
ENCODING 173
SWIDTH 450 0
DWIDTH 6 0
BBX 6 10 0 -2
BITMAP
00
00
00
00
F8
F8
00
00
00
00
ENDCHAR
STARTCHAR registered
ENCODING 174
SWIDTH 450 0
DWIDTH 6 0
BBX 6 10 0 -2
BITMAP
00
FC
84
B4
A4
A4
84
FC
00
00
ENDCHAR
STARTCHAR macron
ENCODING 175
SWIDTH 450 0
DWIDTH 6 0
BBX 6 10 0 -2
BITMAP
00
F8
F8
00
00
00
00
00
00
00
ENDCHAR
STARTCHAR degree
ENCODING 176
SWIDTH 450 0
DWIDTH 6 0
BBX 6 10 0 -2
BITMAP
00
30
58
30
00
00
00
00
00
00
ENDCHAR
STARTCHAR plusminus
ENCODING 177
SWIDTH 450 0
DWIDTH 6 0
BBX 6 10 0 -2
BITMAP
00
00
20
20
F8
20
20
F8
00
00
ENDCHAR
STARTCHAR uni00B2
ENCODING 178
SWIDTH 450 0
DWIDTH 6 0
BBX 6 10 0 -2
BITMAP
60
10
30
60
70
00
00
00
00
00
ENDCHAR
STARTCHAR uni00B3
ENCODING 179
SWIDTH 450 0
DWIDTH 6 0
BBX 6 10 0 -2
BITMAP
60
30
60
30
60
00
00
00
00
00
ENDCHAR
STARTCHAR acute
ENCODING 180
SWIDTH 450 0
DWIDTH 6 0
BBX 6 10 0 -2
BITMAP
10
30
20
00
00
00
00
00
00
00
ENDCHAR
STARTCHAR uni00B5
ENCODING 181
SWIDTH 450 0
DWIDTH 6 0
BBX 6 10 0 -2
BITMAP
00
00
00
58
58
58
58
74
40
80
ENDCHAR
STARTCHAR paragraph
ENCODING 182
SWIDTH 450 0
DWIDTH 6 0
BBX 6 10 0 -2
BITMAP
00
7C
E8
E8
E8
68
28
28
28
28
ENDCHAR
STARTCHAR periodcentered
ENCODING 183
SWIDTH 450 0
DWIDTH 6 0
BBX 6 10 0 -2
BITMAP
00
00
00
00
30
30
00
00
00
00
ENDCHAR
STARTCHAR cedilla
ENCODING 184
SWIDTH 450 0
DWIDTH 6 0
BBX 6 10 0 -2
BITMAP
00
00
00
00
00
00
38
18
18
30
ENDCHAR
STARTCHAR uni00B9
ENCODING 185
SWIDTH 450 0
DWIDTH 6 0
BBX 6 10 0 -2
BITMAP
30
70
30
30
78
00
00
00
00
00
ENDCHAR
STARTCHAR ordmasculine
ENCODING 186
SWIDTH 450 0
DWIDTH 6 0
BBX 6 10 0 -2
BITMAP
30
58
58
30
00
00
00
00
00
00
ENDCHAR
STARTCHAR guillemotright
ENCODING 187
SWIDTH 450 0
DWIDTH 6 0
BBX 6 10 0 -2
BITMAP
00
00
00
B0
58
2C
58
B0
00
00
ENDCHAR
STARTCHAR onequarter
ENCODING 188
SWIDTH 450 0
DWIDTH 6 0
BBX 6 10 0 -2
BITMAP
08
88
90
90
24
2C
5C
44
80
00
ENDCHAR
STARTCHAR onehalf
ENCODING 189
SWIDTH 450 0
DWIDTH 6 0
BBX 6 10 0 -2
BITMAP
08
88
90
90
2C
24
48
4C
80
00
ENDCHAR
STARTCHAR threequarters
ENCODING 190
SWIDTH 450 0
DWIDTH 6 0
BBX 6 10 0 -2
BITMAP
88
48
D0
50
A4
2C
5C
44
80
00
ENDCHAR
STARTCHAR questiondown
ENCODING 191
SWIDTH 450 0
DWIDTH 6 0
BBX 6 10 0 -2
BITMAP
00
20
00
20
30
18
98
70
00
00
ENDCHAR
STARTCHAR Agrave
ENCODING 192
SWIDTH 450 0
DWIDTH 6 0
BBX 6 10 0 -2
BITMAP
40
20
00
20
50
70
D8
D8
00
00
ENDCHAR
STARTCHAR Aacute
ENCODING 193
SWIDTH 450 0
DWIDTH 6 0
BBX 6 10 0 -2
BITMAP
20
40
00
20
50
70
D8
D8
00
00
ENDCHAR
STARTCHAR Acircumflex
ENCODING 194
SWIDTH 450 0
DWIDTH 6 0
BBX 6 10 0 -2
BITMAP
20
50
00
20
50
70
D8
D8
00
00
ENDCHAR
STARTCHAR Atilde
ENCODING 195
SWIDTH 450 0
DWIDTH 6 0
BBX 6 10 0 -2
BITMAP
28
50
00
20
50
70
D8
D8
00
00
ENDCHAR
STARTCHAR Adieresis
ENCODING 196
SWIDTH 450 0
DWIDTH 6 0
BBX 6 10 0 -2
BITMAP
00
50
00
20
50
70
D8
D8
00
00
ENDCHAR
STARTCHAR Aring
ENCODING 197
SWIDTH 450 0
DWIDTH 6 0
BBX 6 10 0 -2
BITMAP
20
50
20
20
50
70
D8
D8
00
00
ENDCHAR
STARTCHAR AE
ENCODING 198
SWIDTH 450 0
DWIDTH 6 0
BBX 6 10 0 -2
BITMAP
00
3C
50
50
7C
D0
D0
DC
00
00
ENDCHAR
STARTCHAR Ccedilla
ENCODING 199
SWIDTH 450 0
DWIDTH 6 0
BBX 6 10 0 -2
BITMAP
00
70
C8
C0
C0
C0
C8
70
20
40
ENDCHAR
STARTCHAR Egrave
ENCODING 200
SWIDTH 450 0
DWIDTH 6 0
BBX 6 10 0 -2
BITMAP
40
20
00
F8
C0
F0
C0
F8
00
00
ENDCHAR
STARTCHAR Eacute
ENCODING 201
SWIDTH 450 0
DWIDTH 6 0
BBX 6 10 0 -2
BITMAP
20
40
00
F8
C0
F0
C0
F8
00
00
ENDCHAR
STARTCHAR Ecircumflex
ENCODING 202
SWIDTH 450 0
DWIDTH 6 0
BBX 6 10 0 -2
BITMAP
20
50
00
F8
C0
F0
C0
F8
00
00
ENDCHAR
STARTCHAR Edieresis
ENCODING 203
SWIDTH 450 0
DWIDTH 6 0
BBX 6 10 0 -2
BITMAP
00
50
00
F8
C0
F0
C0
F8
00
00
ENDCHAR
STARTCHAR Igrave
ENCODING 204
SWIDTH 450 0
DWIDTH 6 0
BBX 6 10 0 -2
BITMAP
20
10
00
78
30
30
30
78
00
00
ENDCHAR
STARTCHAR Iacute
ENCODING 205
SWIDTH 450 0
DWIDTH 6 0
BBX 6 10 0 -2
BITMAP
10
20
00
78
30
30
30
78
00
00
ENDCHAR
STARTCHAR Icircumflex
ENCODING 206
SWIDTH 450 0
DWIDTH 6 0
BBX 6 10 0 -2
BITMAP
30
48
00
78
30
30
30
78
00
00
ENDCHAR
STARTCHAR Idieresis
ENCODING 207
SWIDTH 450 0
DWIDTH 6 0
BBX 6 10 0 -2
BITMAP
00
48
00
78
30
30
30
78
00
00
ENDCHAR
STARTCHAR Eth
ENCODING 208
SWIDTH 450 0
DWIDTH 6 0
BBX 6 10 0 -2
BITMAP
00
70
68
64
F4
64
68
70
00
00
ENDCHAR
STARTCHAR Ntilde
ENCODING 209
SWIDTH 450 0
DWIDTH 6 0
BBX 6 10 0 -2
BITMAP
28
50
00
D8
F8
F8
D8
D8
00
00
ENDCHAR
STARTCHAR Ograve
ENCODING 210
SWIDTH 450 0
DWIDTH 6 0
BBX 6 10 0 -2
BITMAP
40
20
00
70
D8
D8
D8
70
00
00
ENDCHAR
STARTCHAR Oacute
ENCODING 211
SWIDTH 450 0
DWIDTH 6 0
BBX 6 10 0 -2
BITMAP
20
40
00
70
D8
D8
D8
70
00
00
ENDCHAR
STARTCHAR Ocircumflex
ENCODING 212
SWIDTH 450 0
DWIDTH 6 0
BBX 6 10 0 -2
BITMAP
20
50
00
70
D8
D8
D8
70
00
00
ENDCHAR
STARTCHAR Otilde
ENCODING 213
SWIDTH 450 0
DWIDTH 6 0
BBX 6 10 0 -2
BITMAP
28
50
00
70
D8
D8
D8
70
00
00
ENDCHAR
STARTCHAR Odieresis
ENCODING 214
SWIDTH 450 0
DWIDTH 6 0
BBX 6 10 0 -2
BITMAP
00
50
00
70
D8
D8
D8
70
00
00
ENDCHAR
STARTCHAR multiply
ENCODING 215
SWIDTH 450 0
DWIDTH 6 0
BBX 6 10 0 -2
BITMAP
00
00
88
50
20
50
88
00
00
00
ENDCHAR
STARTCHAR Oslash
ENCODING 216
SWIDTH 450 0
DWIDTH 6 0
BBX 6 10 0 -2
BITMAP
00
00
34
58
58
78
58
B0
00
00
ENDCHAR
STARTCHAR Ugrave
ENCODING 217
SWIDTH 450 0
DWIDTH 6 0
BBX 6 10 0 -2
BITMAP
40
20
00
D8
D8
D8
D8
78
00
00
ENDCHAR
STARTCHAR Uacute
ENCODING 218
SWIDTH 450 0
DWIDTH 6 0
BBX 6 10 0 -2
BITMAP
20
40
00
D8
D8
D8
D8
78
00
00
ENDCHAR
STARTCHAR Ucircumflex
ENCODING 219
SWIDTH 450 0
DWIDTH 6 0
BBX 6 10 0 -2
BITMAP
20
50
00
D8
D8
D8
D8
78
00
00
ENDCHAR
STARTCHAR Udieresis
ENCODING 220
SWIDTH 450 0
DWIDTH 6 0
BBX 6 10 0 -2
BITMAP
00
50
00
D8
D8
D8
D8
78
00
00
ENDCHAR
STARTCHAR Yacute
ENCODING 221
SWIDTH 450 0
DWIDTH 6 0
BBX 6 10 0 -2
BITMAP
10
20
D8
D8
D8
70
20
20
00
00
ENDCHAR
STARTCHAR Thorn
ENCODING 222
SWIDTH 450 0
DWIDTH 6 0
BBX 6 10 0 -2
BITMAP
00
C0
C0
F0
C8
C8
F0
C0
C0
00
ENDCHAR
STARTCHAR germandbls
ENCODING 223
SWIDTH 450 0
DWIDTH 6 0
BBX 6 10 0 -2
BITMAP
00
30
68
68
70
68
68
70
80
00
ENDCHAR
STARTCHAR agrave
ENCODING 224
SWIDTH 450 0
DWIDTH 6 0
BBX 6 10 0 -2
BITMAP
40
20
00
70
18
78
D8
78
00
00
ENDCHAR
STARTCHAR aacute
ENCODING 225
SWIDTH 450 0
DWIDTH 6 0
BBX 6 10 0 -2
BITMAP
20
40
00
70
18
78
D8
78
00
00
ENDCHAR
STARTCHAR acircumflex
ENCODING 226
SWIDTH 450 0
DWIDTH 6 0
BBX 6 10 0 -2
BITMAP
20
50
00
70
18
78
D8
78
00
00
ENDCHAR
STARTCHAR atilde
ENCODING 227
SWIDTH 450 0
DWIDTH 6 0
BBX 6 10 0 -2
BITMAP
28
50
00
70
18
78
D8
78
00
00
ENDCHAR
STARTCHAR adieresis
ENCODING 228
SWIDTH 450 0
DWIDTH 6 0
BBX 6 10 0 -2
BITMAP
00
50
00
70
18
78
D8
78
00
00
ENDCHAR
STARTCHAR aring
ENCODING 229
SWIDTH 450 0
DWIDTH 6 0
BBX 6 10 0 -2
BITMAP
20
50
20
70
18
78
D8
78
00
00
ENDCHAR
STARTCHAR ae
ENCODING 230
SWIDTH 450 0
DWIDTH 6 0
BBX 6 10 0 -2
BITMAP
00
00
00
68
34
78
D8
6C
00
00
ENDCHAR
STARTCHAR ccedilla
ENCODING 231
SWIDTH 450 0
DWIDTH 6 0
BBX 6 10 0 -2
BITMAP
00
00
00
78
C0
C0
C0
78
20
40
ENDCHAR
STARTCHAR egrave
ENCODING 232
SWIDTH 450 0
DWIDTH 6 0
BBX 6 10 0 -2
BITMAP
40
20
00
70
D8
F8
C0
78
00
00
ENDCHAR
STARTCHAR eacute
ENCODING 233
SWIDTH 450 0
DWIDTH 6 0
BBX 6 10 0 -2
BITMAP
20
40
00
70
D8
F8
C0
78
00
00
ENDCHAR
STARTCHAR ecircumflex
ENCODING 234
SWIDTH 450 0
DWIDTH 6 0
BBX 6 10 0 -2
BITMAP
20
50
00
70
D8
F8
C0
78
00
00
ENDCHAR
STARTCHAR edieresis
ENCODING 235
SWIDTH 450 0
DWIDTH 6 0
BBX 6 10 0 -2
BITMAP
00
50
00
70
D8
F8
C0
78
00
00
ENDCHAR
STARTCHAR igrave
ENCODING 236
SWIDTH 450 0
DWIDTH 6 0
BBX 6 10 0 -2
BITMAP
40
20
00
70
30
30
30
30
00
00
ENDCHAR
STARTCHAR iacute
ENCODING 237
SWIDTH 450 0
DWIDTH 6 0
BBX 6 10 0 -2
BITMAP
10
20
00
70
30
30
30
30
00
00
ENDCHAR
STARTCHAR icircumflex
ENCODING 238
SWIDTH 450 0
DWIDTH 6 0
BBX 6 10 0 -2
BITMAP
20
50
00
70
30
30
30
30
00
00
ENDCHAR
STARTCHAR idieresis
ENCODING 239
SWIDTH 450 0
DWIDTH 6 0
BBX 6 10 0 -2
BITMAP
00
50
00
70
30
30
30
30
00
00
ENDCHAR
STARTCHAR eth
ENCODING 240
SWIDTH 450 0
DWIDTH 6 0
BBX 6 10 0 -2
BITMAP
00
68
10
08
78
D8
D8
70
00
00
ENDCHAR
STARTCHAR ntilde
ENCODING 241
SWIDTH 450 0
DWIDTH 6 0
BBX 6 10 0 -2
BITMAP
28
50
00
F0
D8
D8
D8
D8
00
00
ENDCHAR
STARTCHAR ograve
ENCODING 242
SWIDTH 450 0
DWIDTH 6 0
BBX 6 10 0 -2
BITMAP
40
20
00
70
D8
D8
D8
70
00
00
ENDCHAR
STARTCHAR oacute
ENCODING 243
SWIDTH 450 0
DWIDTH 6 0
BBX 6 10 0 -2
BITMAP
20
40
00
70
D8
D8
D8
70
00
00
ENDCHAR
STARTCHAR ocircumflex
ENCODING 244
SWIDTH 450 0
DWIDTH 6 0
BBX 6 10 0 -2
BITMAP
20
50
00
70
D8
D8
D8
70
00
00
ENDCHAR
STARTCHAR otilde
ENCODING 245
SWIDTH 450 0
DWIDTH 6 0
BBX 6 10 0 -2
BITMAP
50
A0
00
70
D8
D8
D8
70
00
00
ENDCHAR
STARTCHAR odieresis
ENCODING 246
SWIDTH 450 0
DWIDTH 6 0
BBX 6 10 0 -2
BITMAP
00
50
00
70
D8
D8
D8
70
00
00
ENDCHAR
STARTCHAR divide
ENCODING 247
SWIDTH 450 0
DWIDTH 6 0
BBX 6 10 0 -2
BITMAP
00
00
20
00
F8
00
20
00
00
00
ENDCHAR
STARTCHAR oslash
ENCODING 248
SWIDTH 450 0
DWIDTH 6 0
BBX 6 10 0 -2
BITMAP
00
00
34
58
58
78
58
B0
00
00
ENDCHAR
STARTCHAR ugrave
ENCODING 249
SWIDTH 450 0
DWIDTH 6 0
BBX 6 10 0 -2
BITMAP
40
20
00
D8
D8
D8
D8
78
00
00
ENDCHAR
STARTCHAR uacute
ENCODING 250
SWIDTH 450 0
DWIDTH 6 0
BBX 6 10 0 -2
BITMAP
20
40
00
D8
D8
D8
D8
78
00
00
ENDCHAR
STARTCHAR ucircumflex
ENCODING 251
SWIDTH 450 0
DWIDTH 6 0
BBX 6 10 0 -2
BITMAP
20
50
00
D8
D8
D8
D8
78
00
00
ENDCHAR
STARTCHAR udieresis
ENCODING 252
SWIDTH 450 0
DWIDTH 6 0
BBX 6 10 0 -2
BITMAP
00
50
00
D8
D8
D8
D8
78
00
00
ENDCHAR
STARTCHAR yacute
ENCODING 253
SWIDTH 450 0
DWIDTH 6 0
BBX 6 10 0 -2
BITMAP
20
40
00
D8
D8
D8
D8
78
18
70
ENDCHAR
STARTCHAR thorn
ENCODING 254
SWIDTH 450 0
DWIDTH 6 0
BBX 6 10 0 -2
BITMAP
00
C0
C0
F0
C8
C8
C8
F0
C0
C0
ENDCHAR
STARTCHAR ydieresis
ENCODING 255
SWIDTH 450 0
DWIDTH 6 0
BBX 6 10 0 -2
BITMAP
00
50
00
D8
D8
D8
D8
78
18
70
ENDCHAR
STARTCHAR char955
ENCODING 955
SWIDTH 450 0
DWIDTH 6 0
BBX 6 10 0 -2
BITMAP
00
C0
60
20
70
D8
88
88
00
00
ENDCHAR
STARTCHAR char960
ENCODING 960
SWIDTH 450 0
DWIDTH 6 0
BBX 6 10 0 -2
BITMAP
00
00
00
F8
50
50
50
98
00
00
ENDCHAR
STARTCHAR char9642
ENCODING 9642
SWIDTH 450 0
DWIDTH 6 0
BBX 6 10 0 -2
BITMAP
00
00
00
00
70
70
70
00
00
00
ENDCHAR
STARTCHAR char9652
ENCODING 9652
SWIDTH 450 0
DWIDTH 6 0
BBX 6 10 0 -2
BITMAP
00
00
00
00
20
20
70
70
00
00
ENDCHAR
STARTCHAR char9656
ENCODING 9656
SWIDTH 450 0
DWIDTH 6 0
BBX 6 10 0 -2
BITMAP
00
00
00
40
60
70
60
40
00
00
ENDCHAR
STARTCHAR char9652
ENCODING 9662
SWIDTH 450 0
DWIDTH 6 0
BBX 6 10 0 -2
BITMAP
00
00
00
00
70
70
20
20
00
00
ENDCHAR
STARTCHAR char9656
ENCODING 9666
SWIDTH 450 0
DWIDTH 6 0
BBX 6 10 0 -2
BITMAP
00
00
00
10
30
70
30
10
00
00
ENDCHAR
STARTCHAR char9670
ENCODING 9670
SWIDTH 450 0
DWIDTH 6 0
BBX 6 10 0 -2
BITMAP
00
00
00
00
20
70
20
00
00
00
ENDCHAR
STARTCHAR char10003
ENCODING 10003
SWIDTH 450 0
DWIDTH 6 0
BBX 6 10 0 -2
BITMAP
00
04
08
08
10
A0
A0
40
00
00
ENDCHAR
STARTCHAR char10007
ENCODING 10007
SWIDTH 450 0
DWIDTH 6 0
BBX 6 10 0 -2
BITMAP
00
48
50
20
30
48
40
80
00
00
ENDCHAR
STARTCHAR uniE0A0
ENCODING 57504
SWIDTH 450 0
DWIDTH 6 0
BBX 6 10 0 -2
BITMAP
80
88
9C
BC
88
98
30
60
C0
C0
ENDCHAR
STARTCHAR uniE0A1
ENCODING 57505
SWIDTH 450 0
DWIDTH 6 0
BBX 6 10 0 -2
BITMAP
80
80
80
80
E0
00
34
34
2C
2C
ENDCHAR
STARTCHAR uniE0A2
ENCODING 57506
SWIDTH 450 0
DWIDTH 6 0
BBX 6 10 0 -2
BITMAP
00
30
48
48
FC
CC
CC
78
30
00
ENDCHAR
STARTCHAR uniE0B0
ENCODING 57520
SWIDTH 450 0
DWIDTH 6 0
BBX 6 10 0 -2
BITMAP
80
C0
E0
F0
F8
F8
F0
E0
C0
80
ENDCHAR
STARTCHAR uniE0B1
ENCODING 57521
SWIDTH 450 0
DWIDTH 6 0
BBX 6 10 0 -2
BITMAP
80
40
20
10
08
08
10
20
40
80
ENDCHAR
STARTCHAR uniE0B2
ENCODING 57522
SWIDTH 450 0
DWIDTH 6 0
BBX 6 10 0 -2
BITMAP
04
0C
1C
3C
7C
7C
3C
1C
0C
04
ENDCHAR
STARTCHAR uniE0B3
ENCODING 57523
SWIDTH 450 0
DWIDTH 6 0
BBX 6 10 0 -2
BITMAP
04
08
10
20
40
40
20
10
08
04
ENDCHAR
ENDFONT
